# xmcd
#
# Track frame offsets:
#	150
#	16194
#	31116
#	46686
#	66708
#	85377
#	103887
#	121041
#	140247
#	157596
#
# Disc length: 2424 seconds
#
# Revision: 0
# Processed by: cddbd v1.5.2PL0 Copyright (c) Steve Scherf et al.
# Submitted via: EZCDAudioConverter 3.1.5.1
#
DISCID=7b09760a
DTITLE=Mirkelam - Mirkelam Şarkıları
DYEAR=2017
DGENRE=Pop/Rock
TTITLE0=Gülşen - Her Gece
TTITLE1=Teoman - Hatıralar
TTITLE2=Göksel - Unutulmaz
TTITLE3=Kenan Doğulu - Tavla
TTITLE4=Nil Karaibrahimgil - Asuman
TTITLE5=Mabel Matiz - Laubali
TTITLE6=Bedük - Terle
TTITLE7=Feridun Düzağaç - Erenköy
TTITLE8=Eser Yenenler - Ah Bir Joker
TTITLE9=Pinhani - Yollar
EXTD=
EXTT0=
EXTT1=
EXTT2=
EXTT3=
EXTT4=
EXTT5=
EXTT6=
EXTT7=
EXTT8=
EXTT9=
PLAYORDER=
